<svg id="Layer_1" data-name="Layer 1" xmlns="http://www.w3.org/2000/svg" viewBox="0 0 30.78 25"><path d="M296.48,369.6H296V356.22a4.18,4.18,0,0,0,1.93-3.52.46.46,0,0,0-.06-.23l-3.58-6.26a1.41,1.41,0,0,0-1.23-.71H272a1.41,1.41,0,0,0-1.22.71l-3.58,6.26a.46.46,0,0,0-.06.23,4.18,4.18,0,0,0,1.93,3.52V369.6h-.52a.45.45,0,1,0,0,.9h28a.45.45,0,1,0,0-.9ZM268,353.15h1.45a.45.45,0,1,0,0-.9h-1.15l3.19-5.59a.51.51,0,0,1,.44-.26h21a.51.51,0,0,1,.45.26l3.19,5.59h-1.15a.45.45,0,1,0,0,.9H297a3.29,3.29,0,0,1-6.51,0h3.13a.45.45,0,1,0,0-.9H271.42a.45.45,0,1,0,0,.9h3.13a3.29,3.29,0,0,1-6.51,0Zm21.45,0a3.29,3.29,0,0,1-6.51,0Zm-7.47,0a3.29,3.29,0,0,1-6.51,0Zm10.63,16.45h-4.88v-1.51h4.88Zm0-2.41h-4.88v-8.26h4.88Zm2.41,2.41h-1.51V358.48a.45.45,0,0,0-.45-.45h-5.78a.45.45,0,0,0-.45.45V369.6H269.94V356.66a4.3,4.3,0,0,0,1.35.23,4.2,4.2,0,0,0,3.74-2.3,4.18,4.18,0,0,0,7.47,0,4.18,4.18,0,0,0,7.47,0,4.2,4.2,0,0,0,3.74,2.3,4.3,4.3,0,0,0,1.35-.23Z" transform="translate(-267.11 -345.5)"/><path d="M284.91,358h-13a.46.46,0,0,0-.46.45v9.16a.46.46,0,0,0,.46.45h13a.45.45,0,0,0,.45-.45v-9.16A.45.45,0,0,0,284.91,358Zm-.45,9.16H272.35v-8.26h12.11Z" transform="translate(-267.11 -345.5)"/></svg>